<svg xmlns="http://www.w3.org/2000/svg" viewBox="0 0 220 70">
  <!-- Shield shape (cyan/light blue) -->
  <path d="M 35 12 L 45 12 L 50 20 L 50 40 C 50 48 45 52 40 55 C 35 52 30 48 30 40 L 30 20 Z" 
        fill="#5DADE2" 
        stroke="#00CED1" 
        stroke-width="2"/>
  
  <!-- Keyhole in the center of shield -->
  <circle cx="40" cy="30" r="4" fill="#0A0A0F"/>
  <path d="M 38 34 L 38 42 L 42 42 L 42 34 Z" fill="#0A0A0F"/>
  
  <!-- Circular arrows (purple/morado oscuro) -->
  <!-- Left arrow curving up -->
  <path d="M 20 35 Q 15 30 15 25 Q 15 18 22 15" 
        fill="none" 
        stroke="#8b5cf6" 
        stroke-width="3" 
        stroke-linecap="round"/>
  <path d="M 22 15 L 20 11 L 17 14 Z" fill="#8b5cf6"/>
  
  <!-- Right arrow curving down -->
  <path d="M 60 25 Q 65 30 65 35 Q 65 42 58 45" 
        fill="none" 
        stroke="#8b5cf6" 
        stroke-width="3" 
        stroke-linecap="round"/>
  <path d="M 58 45 L 60 49 L 63 46 Z" fill="#8b5cf6"/>
  
  <!-- Text -->
  <text x="75" y="35" font-family="Arial, sans-serif" font-size="22" font-weight="bold" fill="#f8f9fa">
    KEYWARDEN
  </text>
  <text x="75" y="50" font-family="Arial, sans-serif" font-size="11" font-weight="600" fill="#00f5ff">
    PROTECTION
  </text>
</svg>
